<svg version="1.1" id="Layer_1" xmlns="http://www.w3.org/2000/svg" xmlns:xlink="http://www.w3.org/1999/xlink" x="0px" y="0px"
	 width="100%" viewBox="0 0 528 128" enable-background="new 0 0 528 128" xml:space="preserve">
<path fill="#39023E" opacity="1.000000" stroke="none" 
	d="
M349.000000,129.000000 
	C232.666687,129.000000 116.833359,129.000000 1.000031,129.000000 
	C1.000021,86.333351 1.000021,43.666706 1.000010,1.000043 
	C176.999954,1.000028 352.999908,1.000028 528.999878,1.000014 
	C528.999939,43.666622 528.999939,86.333244 529.000000,128.999939 
	C469.166656,129.000000 409.333344,129.000000 349.000000,129.000000 
M318.411133,70.248703 
	C318.411133,70.248703 318.085999,69.986923 318.083862,69.301239 
	C317.418060,67.871498 316.752258,66.441757 316.159363,64.307350 
	C315.938843,63.904858 315.718323,63.502369 315.517365,62.514359 
	C315.225555,62.019356 314.933716,61.524349 314.604218,60.370602 
	C314.133270,59.404926 313.662354,58.439251 313.305023,57.191612 
	C313.305023,57.191612 313.073486,56.994629 313.173126,56.261200 
	C312.528259,54.958744 311.883423,53.656288 311.304047,51.743580 
	C310.900696,50.830685 310.497345,49.917789 310.140961,48.455025 
	C310.030151,48.308178 309.919373,48.161327 309.837952,47.356152 
	C309.452240,46.579838 309.066498,45.803524 308.642517,44.353527 
	C308.169525,43.367691 307.696564,42.381855 307.300873,41.129570 
	C307.300873,41.129570 307.056793,40.997658 307.024567,40.274620 
	C306.419769,38.983768 305.814941,37.692913 305.280121,35.846905 
	C304.991180,35.182285 304.702209,34.517666 304.391602,33.127666 
	C304.009644,32.529831 303.627716,31.931993 303.350342,31.140745 
	C303.350342,31.140745 303.174988,31.008089 303.261627,30.257492 
	C302.626678,28.914963 301.991760,27.572435 301.474731,25.751905 
	C301.424164,25.389299 301.227417,25.143919 300.441132,24.293800 
	C293.544006,24.435898 286.646881,24.577997 279.717255,24.769968 
	C279.717255,24.769968 279.727112,24.704254 279.097260,24.991583 
	C278.122314,27.670254 277.147369,30.348925 275.694366,33.476715 
	C275.289581,34.711651 274.884766,35.946590 274.048065,37.643040 
	C273.847748,38.439053 273.647430,39.235065 273.104889,40.517227 
	C273.025208,40.900848 272.945526,41.284470 272.309662,42.122482 
	C271.550232,44.416042 270.790771,46.709602 269.660858,49.276833 
	C269.441376,49.532906 269.379272,49.822697 269.015259,50.713284 
	C267.812073,54.152576 266.608887,57.591866 265.067322,61.597355 
	C264.774963,62.414886 264.482574,63.232418 263.752991,64.407150 
	C263.659576,64.949043 263.566132,65.490936 263.128204,66.539062 
	C263.049469,66.934967 262.970734,67.330864 262.449524,67.988869 
	C262.410492,68.315033 262.371490,68.641197 261.983032,69.465935 
	C261.851654,70.050690 261.720276,70.635445 261.114258,71.728432 
	C260.795929,72.828026 260.477600,73.927612 259.698425,75.399681 
	C259.526184,75.949257 259.353973,76.498840 258.689728,77.549706 
	C258.371338,78.671646 258.052917,79.793594 257.296783,81.290588 
	C257.139740,82.033524 256.982666,82.776451 256.324432,83.941101 
	C256.060120,84.973305 255.795792,86.005501 255.157990,87.508080 
	C255.059143,87.891167 254.960312,88.274261 254.340179,89.073563 
	C254.230423,89.716133 254.120667,90.358704 253.652008,91.294022 
	C253.440765,91.567413 253.407211,91.861099 253.068512,92.725380 
	C252.000717,95.448807 250.835831,98.141151 249.945694,100.921463 
	C249.764084,101.488762 250.614929,102.386620 251.889954,103.416985 
	C257.591827,103.299980 263.293732,103.182968 269.621338,103.108040 
	C269.825317,102.768036 270.029266,102.428040 270.719360,101.722420 
	C270.861084,100.935356 271.002808,100.148300 271.691315,98.937714 
	C271.847992,98.283974 272.004669,97.630234 272.611938,96.478127 
	C273.055847,94.986305 273.499756,93.494484 274.279694,91.616501 
	C274.280487,91.445862 274.281281,91.275223 274.732635,90.803802 
	C274.950104,90.130249 275.167542,89.456688 275.942017,88.142212 
	C277.345428,87.293053 278.666718,85.949760 280.169739,85.699997 
	C283.087982,85.215080 286.108337,85.344421 289.967896,85.470657 
	C294.593048,86.000778 299.218201,86.530899 303.922516,87.814186 
	C306.285767,92.845985 308.648987,97.877777 311.886414,103.266769 
	C317.592926,103.208221 323.299438,103.149666 329.666046,103.226791 
	C329.525269,101.934868 329.384491,100.642952 329.261292,98.634163 
	C326.931610,92.722374 324.601898,86.810585 322.291901,80.188698 
	C321.928955,79.597321 321.565979,79.005936 321.304199,77.918587 
	C321.167145,77.617195 321.030090,77.315811 320.951172,76.323341 
	C320.382660,75.332085 319.814148,74.340828 319.350739,73.141182 
	C319.350739,73.141182 319.159912,73.006821 319.255066,72.358017 
	C318.962921,71.804077 318.670746,71.250130 318.075623,70.777824 
	C318.075623,70.777824 318.368164,70.663910 318.411133,70.248703 
M465.995239,127.922272 
	C477.295563,127.878761 488.595886,127.835251 500.842621,127.880386 
	C509.807220,127.880386 518.771851,127.880386 527.736450,127.880386 
	C527.724915,127.133560 527.713318,126.386734 527.701721,125.639908 
	C518.484192,123.001236 509.226013,125.558044 499.044922,126.563705 
	C487.707428,126.600151 476.369965,126.636604 464.305817,126.282272 
	C458.754761,126.282272 453.203705,126.282272 447.652618,126.282272 
	C447.666046,126.812569 447.679474,127.342857 447.692871,127.873154 
	C453.484650,127.873154 459.276398,127.873154 465.995239,127.922272 
M85.274605,32.598652 
	C85.272476,36.429108 85.266434,40.259563 85.268883,44.090015 
	C85.280479,62.243183 85.225906,80.397102 85.424286,98.548248 
	C85.442123,100.180191 86.996368,103.117294 88.014481,103.197533 
	C93.765152,103.650780 99.570007,103.416534 106.016571,103.416534 
	C106.016571,95.471558 106.016571,88.079887 106.016571,80.126823 
	C112.461929,80.126823 118.246056,80.158875 124.029716,80.120781 
	C141.015701,80.008911 151.455734,70.846779 152.522659,53.933350 
	C153.577087,37.217747 144.132019,24.255760 126.067535,24.078167 
	C114.410599,23.963566 102.751762,24.029781 91.093811,24.043224 
	C89.324379,24.045263 87.555138,24.201008 85.275116,24.310091 
	C85.275116,27.049944 85.275116,29.342363 85.274605,32.598652 
M20.404739,32.636497 
	C20.400583,54.605423 20.340965,76.574760 20.504353,98.542442 
	C20.516571,100.185448 22.018171,103.154350 23.007252,103.232559 
	C28.724421,103.684669 34.495640,103.453239 40.868500,103.453239 
	C40.868500,92.526405 40.868500,82.473206 40.868500,72.009880 
	C48.807278,72.009880 56.101105,72.120277 63.390373,71.985077 
	C75.574890,71.759079 73.775925,74.136772 74.108284,61.028042 
	C74.205406,57.197472 73.217117,55.776344 69.114372,55.916252 
	C59.850304,56.232162 50.568073,56.015514 40.672993,56.015514 
	C40.672993,51.546139 40.850075,47.593933 40.619709,43.665619 
	C40.417572,40.218685 41.978374,39.387203 45.076916,39.509697 
	C49.896477,39.700230 54.728054,39.593994 59.554554,39.600079 
	C65.649384,39.607765 71.744232,39.601933 77.896240,39.601933 
	C77.896240,34.064339 77.896240,29.323141 77.896240,24.408308 
	C58.695976,24.408308 39.850246,24.408308 20.406786,24.408308 
	C20.406786,27.090752 20.406786,29.384720 20.404739,32.636497 
M445.319641,58.749451 
	C449.275635,60.079845 450.424164,62.860863 449.836884,67.136635 
	C442.976654,67.136635 436.490387,66.911537 430.025238,67.185234 
	C417.947571,67.696548 410.447876,74.531326 409.928802,85.114502 
	C409.404541,95.802414 415.597717,102.691505 427.829681,104.381058 
	C435.901398,105.495972 443.610687,103.897522 449.032867,100.366417 
	C452.216217,101.722977 454.136108,103.019424 456.196960,103.307465 
	C459.303375,103.741638 462.514893,103.355255 465.669495,103.533936 
	C468.657471,103.703178 469.833130,102.575615 469.771484,99.511040 
	C469.533966,87.700829 469.551056,75.885437 469.306580,64.075432 
	C469.118317,54.982159 464.142303,49.187714 455.862915,46.232281 
	C446.697784,42.960659 437.254547,43.161556 427.804443,44.869083 
	C415.737244,47.049500 415.706055,47.126133 417.206451,59.345840 
	C417.225128,59.498089 417.364441,59.635525 417.098785,59.173443 
	C426.474304,58.925549 435.500885,58.686878 445.319641,58.749451 
M384.210114,103.427002 
	C390.111603,103.427002 396.013123,103.427002 402.123413,103.427002 
	C402.123413,88.428413 402.644226,74.277695 401.946289,60.187340 
	C401.454407,50.256584 394.904541,45.023994 384.876434,43.981575 
	C376.328979,43.093079 368.533997,45.361591 361.762268,48.726562 
	C355.299011,41.892933 347.914581,46.583115 340.944580,44.852615 
	C340.944580,64.085289 340.913208,82.365105 341.037445,100.643875 
	C341.043610,101.555855 342.372803,103.217201 343.133453,103.245316 
	C349.036133,103.463478 354.950470,103.365730 361.243774,103.365730 
	C361.243774,91.504364 361.602020,80.353401 361.090088,69.242531 
	C360.840515,63.826218 363.092468,60.876751 367.657227,59.730217 
	C377.381012,57.287880 382.686737,59.078423 382.280304,69.123489 
	C381.890198,78.763924 382.158691,88.433846 382.273376,98.089188 
	C382.293640,99.793991 382.979462,101.490883 384.210114,103.427002 
M213.051514,103.497116 
	C214.571533,102.692970 217.292038,102.027596 217.403809,101.060654 
	C217.888458,96.868317 217.611588,92.587944 217.611588,87.790100 
	C204.628906,87.790100 192.563309,87.790100 179.975433,87.790100 
	C179.975433,66.311737 179.975433,45.409569 179.975433,24.330803 
	C173.191498,24.330803 166.954498,24.330803 160.467697,24.330803 
	C160.330368,25.399710 160.139893,26.192139 160.139618,26.984636 
	C160.131027,51.147392 160.205917,75.310501 160.078094,99.472542 
	C160.059052,103.073822 161.755112,103.555054 164.646698,103.543846 
	C180.477020,103.482475 196.307678,103.507034 213.051514,103.497116 
M501.400879,49.500328 
	C501.400879,39.881954 501.400879,30.263578 501.400879,20.136564 
	C495.136658,20.136564 489.501373,19.957224 483.899414,20.308851 
	C482.938843,20.369146 481.358276,22.688395 481.349731,23.972696 
	C481.205353,45.627651 481.133881,67.285347 481.361359,88.939117 
	C481.427216,95.204834 483.556488,100.866539 490.223877,103.246811 
	C496.719330,105.565704 503.302216,105.454773 509.781860,103.110947 
	C510.698883,102.779228 511.971558,101.745750 512.017273,100.974144 
	C512.246521,97.105125 512.122314,93.215172 512.122314,89.309471 
	C501.636108,89.963264 501.380493,89.715996 501.385010,79.985886 
	C501.389557,70.157372 501.395233,60.328857 501.400879,49.500328 
M419.499023,126.014359 
	C410.603088,126.014359 401.707153,126.014359 392.811249,126.014359 
	C392.831573,126.555138 392.851929,127.095909 392.872253,127.636688 
	C407.726379,127.636688 422.580505,127.636688 437.434631,127.636688 
	C437.448090,127.097794 437.461548,126.558891 437.475037,126.019997 
	C431.816040,126.019997 426.157043,126.019997 419.499023,126.014359 
z"/>
<path fill="#F7EBD7" opacity="1.000000" stroke="none" 
	d="
M85.274857,32.116718 
	C85.275116,29.342363 85.275116,27.049944 85.275116,24.310091 
	C87.555138,24.201008 89.324379,24.045263 91.093811,24.043224 
	C102.751762,24.029781 114.410599,23.963566 126.067535,24.078167 
	C144.132019,24.255760 153.577087,37.217747 152.522659,53.933350 
	C151.455734,70.846779 141.015701,80.008911 124.029716,80.120781 
	C118.246056,80.158875 112.461929,80.126823 106.016571,80.126823 
	C106.016571,88.079887 106.016571,95.471558 106.016571,103.416534 
	C99.570007,103.416534 93.765152,103.650780 88.014481,103.197533 
	C86.996368,103.117294 85.442123,100.180191 85.424286,98.548248 
	C85.225906,80.397102 85.280479,62.243183 85.268883,44.090015 
	C85.266434,40.259563 85.272476,36.429108 85.274857,32.116718 
M116.455322,39.538078 
	C113.182320,39.538078 109.909317,39.538078 106.019798,39.538078 
	C106.019798,43.920479 106.021912,47.692062 106.019417,51.463646 
	C106.009491,66.450920 106.059120,66.499207 121.055153,64.740906 
	C121.872368,64.645088 122.857353,64.611664 123.443039,64.145569 
	C126.036743,62.081432 129.538986,60.360218 130.847443,57.623302 
	C135.555069,47.776169 129.464005,39.884911 116.455322,39.538078 
z"/>
<path fill="#F7ECD8" opacity="1.000000" stroke="none" 
	d="
M264.190216,64.049950 
	C264.482574,63.232418 264.774963,62.414886 265.541504,61.180614 
	C267.168671,57.224655 268.321625,53.685436 269.474609,50.146210 
	C269.379272,49.822697 269.441376,49.532906 270.149780,48.951485 
	C271.381073,46.306789 272.123474,43.987442 272.865845,41.668091 
	C272.945526,41.284470 273.025208,40.900848 273.573730,40.108559 
	C274.188354,38.860432 274.334167,38.020981 274.479980,37.181530 
	C274.884766,35.946590 275.289581,34.711651 276.216431,33.061104 
	C277.734711,29.998417 278.730927,27.351337 279.727112,24.704254 
	C279.727112,24.704254 279.717255,24.769968 280.214508,24.832838 
	C287.436005,24.935726 294.160248,24.975746 300.884491,25.015764 
	C301.227417,25.143919 301.424164,25.389299 301.356506,26.381771 
	C301.883850,28.343790 302.529419,29.675941 303.174988,31.008091 
	C303.174988,31.008089 303.350342,31.140745 303.283661,31.613388 
	C303.615753,32.675037 304.014496,33.264042 304.413239,33.853050 
	C304.702209,34.517666 304.991180,35.182285 305.189026,36.534683 
	C305.750916,38.480865 306.403839,39.739262 307.056793,40.997658 
	C307.056793,40.997658 307.300873,41.129570 307.211884,41.628262 
	C307.642181,43.093708 308.161469,44.060463 308.680756,45.027214 
	C309.066498,45.803524 309.452240,46.579838 309.722565,47.815842 
	C309.559540,48.648476 309.721802,48.891598 310.093994,49.004894 
	C310.497345,49.917789 310.900696,50.830685 311.212646,52.462772 
	C311.772034,54.452850 312.422760,55.723740 313.073486,56.994629 
	C313.073486,56.994629 313.305023,57.191612 313.197845,57.691277 
	C313.607758,59.137074 314.124817,60.083206 314.641907,61.029343 
	C314.933716,61.524349 315.225555,62.019356 315.480469,63.158184 
	C315.657837,64.205345 315.872131,64.608688 316.086426,65.012024 
	C316.752258,66.441757 317.418060,67.871498 317.971619,69.746101 
	C317.859406,70.190964 317.944092,70.581703 317.944092,70.581703 
	C317.944092,70.581703 318.368164,70.663910 318.368164,70.663910 
	C318.368164,70.663910 318.075623,70.777824 318.175049,71.060638 
	C318.569611,71.897911 318.864746,72.452370 319.159912,73.006821 
	C319.159912,73.006821 319.350739,73.141182 319.242493,73.627197 
	C319.720490,75.080284 320.306763,76.047356 320.893066,77.014435 
	C321.030090,77.315811 321.167145,77.617195 321.238953,78.529358 
	C321.539886,79.726357 321.906067,80.312576 322.272217,80.898796 
	C324.601898,86.810585 326.931610,92.722374 329.188660,99.458290 
	C329.079346,101.218651 329.042633,102.154884 329.005951,103.091118 
	C323.299438,103.149666 317.592926,103.208221 311.433533,102.716263 
	C308.601532,97.130836 306.222443,92.095924 303.843353,87.061020 
	C299.218201,86.530899 294.593048,86.000778 289.213501,85.066284 
	C285.250580,84.481514 282.034149,84.077164 278.835907,84.189789 
	C276.155609,84.284172 274.664185,85.845665 275.385010,88.783134 
	C275.167542,89.456688 274.950104,90.130249 274.346497,90.994499 
	C273.665344,91.443703 273.659790,91.716194 273.943665,92.002670 
	C273.499756,93.494484 273.055847,94.986305 272.132874,96.955528 
	C271.484039,98.075706 271.314301,98.718475 271.144531,99.361244 
	C271.002808,100.148300 270.861084,100.935356 270.226105,102.006348 
	C269.487091,102.548836 269.241364,102.807396 268.995605,103.065956 
	C263.293732,103.182968 257.591827,103.299980 251.501434,102.886864 
	C251.925751,98.962852 252.738571,95.568970 253.551376,92.175079 
	C253.407211,91.861099 253.440765,91.567413 254.060303,90.913986 
	C254.599548,89.908409 254.730499,89.282883 254.861465,88.657349 
	C254.960312,88.274261 255.059143,87.891167 255.641083,87.110939 
	C256.357971,85.648994 256.591797,84.584190 256.825623,83.519386 
	C256.982666,82.776451 257.139740,82.033524 257.787598,80.965363 
	C258.579529,79.442902 258.880646,78.245667 259.181763,77.048424 
	C259.353973,76.498840 259.526184,75.949257 260.226074,75.000275 
	C261.032135,73.473984 261.310516,72.347084 261.588928,71.220192 
	C261.720276,70.635445 261.851654,70.050690 262.321075,69.046448 
	C262.840759,68.353813 262.918396,68.053749 262.892029,67.726768 
	C262.970734,67.330864 263.049469,66.934967 263.528412,66.225616 
	C264.015808,65.291435 264.103027,64.670692 264.190216,64.049950 
M297.347961,62.565113 
	C295.085968,56.804005 292.823944,51.042892 290.561951,45.281784 
	C290.136383,45.251053 289.710815,45.220322 289.285248,45.189590 
	C286.220795,53.458679 283.156372,61.727768 279.885284,70.276512 
	C280.133270,70.423805 280.381287,70.571091 281.486572,70.710205 
	C286.300781,70.749619 291.119873,70.921219 295.926086,70.744095 
	C297.284210,70.694038 298.604767,69.624062 300.321594,68.695679 
	C299.977875,68.119400 299.634155,67.543129 298.922089,66.497482 
	C298.796539,65.941360 298.670990,65.385239 298.563934,64.157028 
	C298.328522,63.789013 298.093140,63.420998 297.347961,62.565113 
M303.057129,45.148682 
	C303.605408,44.556805 304.153687,43.964928 304.701965,43.373051 
	C304.232574,43.057484 303.763214,42.741917 303.293823,42.426346 
	C303.069031,43.183895 302.844208,43.941441 303.057129,45.148682 
z"/>
<path fill="#F4E8D5" opacity="1.000000" stroke="none" 
	d="
M20.405762,32.157593 
	C20.406786,29.384720 20.406786,27.090752 20.406786,24.408308 
	C39.850246,24.408308 58.695976,24.408308 77.896240,24.408308 
	C77.896240,29.323141 77.896240,34.064339 77.896240,39.601933 
	C71.744232,39.601933 65.649384,39.607765 59.554554,39.600079 
	C54.728054,39.593994 49.896477,39.700230 45.076916,39.509697 
	C41.978374,39.387203 40.417572,40.218685 40.619709,43.665619 
	C40.850075,47.593933 40.672993,51.546139 40.672993,56.015514 
	C50.568073,56.015514 59.850304,56.232162 69.114372,55.916252 
	C73.217117,55.776344 74.205406,57.197472 74.108284,61.028042 
	C73.775925,74.136772 75.574890,71.759079 63.390373,71.985077 
	C56.101105,72.120277 48.807278,72.009880 40.868500,72.009880 
	C40.868500,82.473206 40.868500,92.526405 40.868500,103.453239 
	C34.495640,103.453239 28.724421,103.684669 23.007252,103.232559 
	C22.018171,103.154350 20.516571,100.185448 20.504353,98.542442 
	C20.340965,76.574760 20.400583,54.605423 20.405762,32.157593 
z"/>
<path fill="#F6EBD7" opacity="1.000000" stroke="none" 
	d="
M444.923553,58.598831 
	C435.500885,58.686878 426.474304,58.925549 417.098785,59.173443 
	C417.364441,59.635525 417.225128,59.498089 417.206451,59.345840 
	C415.706055,47.126133 415.737244,47.049500 427.804443,44.869083 
	C437.254547,43.161556 446.697784,42.960659 455.862915,46.232281 
	C464.142303,49.187714 469.118317,54.982159 469.306580,64.075432 
	C469.551056,75.885437 469.533966,87.700829 469.771484,99.511040 
	C469.833130,102.575615 468.657471,103.703178 465.669495,103.533936 
	C462.514893,103.355255 459.303375,103.741638 456.196960,103.307465 
	C454.136108,103.019424 452.216217,101.722977 449.032867,100.366417 
	C443.610687,103.897522 435.901398,105.495972 427.829681,104.381058 
	C415.597717,102.691505 409.404541,95.802414 409.928802,85.114502 
	C410.447876,74.531326 417.947571,67.696548 430.025238,67.185234 
	C436.490387,66.911537 442.976654,67.136635 449.836884,67.136635 
	C450.424164,62.860863 449.275635,60.079845 444.923553,58.598831 
M450.011963,86.759743 
	C450.011963,84.327049 450.011963,81.894363 450.011963,79.003815 
	C444.879852,79.003815 440.100494,78.943047 435.323456,79.022919 
	C431.458893,79.087532 428.472260,80.299339 428.193665,84.889046 
	C427.902161,89.691132 430.949677,91.497353 434.873444,91.944504 
	C440.316071,92.564758 445.493713,91.620644 450.011963,86.759743 
z"/>
<path fill="#F8ECD8" opacity="1.000000" stroke="none" 
	d="
M383.784027,103.309219 
	C382.979462,101.490883 382.293640,99.793991 382.273376,98.089188 
	C382.158691,88.433846 381.890198,78.763924 382.280304,69.123489 
	C382.686737,59.078423 377.381012,57.287880 367.657227,59.730217 
	C363.092468,60.876751 360.840515,63.826218 361.090088,69.242531 
	C361.602020,80.353401 361.243774,91.504364 361.243774,103.365730 
	C354.950470,103.365730 349.036133,103.463478 343.133453,103.245316 
	C342.372803,103.217201 341.043610,101.555855 341.037445,100.643875 
	C340.913208,82.365105 340.944580,64.085289 340.944580,44.852615 
	C347.914581,46.583115 355.299011,41.892933 361.762268,48.726562 
	C368.533997,45.361591 376.328979,43.093079 384.876434,43.981575 
	C394.904541,45.023994 401.454407,50.256584 401.946289,60.187340 
	C402.644226,74.277695 402.123413,88.428413 402.123413,103.427002 
	C396.013123,103.427002 390.111603,103.427002 383.784027,103.309219 
z"/>
<path fill="#F6EAD7" opacity="1.000000" stroke="none" 
	d="
M212.594879,103.499588 
	C196.307678,103.507034 180.477020,103.482475 164.646698,103.543846 
	C161.755112,103.555054 160.059052,103.073822 160.078094,99.472542 
	C160.205917,75.310501 160.131027,51.147392 160.139618,26.984636 
	C160.139893,26.192139 160.330368,25.399710 160.467697,24.330803 
	C166.954498,24.330803 173.191498,24.330803 179.975433,24.330803 
	C179.975433,45.409569 179.975433,66.311737 179.975433,87.790100 
	C192.563309,87.790100 204.628906,87.790100 217.611588,87.790100 
	C217.611588,92.587944 217.888458,96.868317 217.403809,101.060654 
	C217.292038,102.027596 214.571533,102.692970 212.594879,103.499588 
z"/>
<path fill="#F7ECD7" opacity="1.000000" stroke="none" 
	d="
M501.400635,50.000336 
	C501.395233,60.328857 501.389557,70.157372 501.385010,79.985886 
	C501.380493,89.715996 501.636108,89.963264 512.122314,89.309471 
	C512.122314,93.215172 512.246521,97.105125 512.017273,100.974144 
	C511.971558,101.745750 510.698883,102.779228 509.781860,103.110947 
	C503.302216,105.454773 496.719330,105.565704 490.223877,103.246811 
	C483.556488,100.866539 481.427216,95.204834 481.361359,88.939117 
	C481.133881,67.285347 481.205353,45.627651 481.349731,23.972696 
	C481.358276,22.688395 482.938843,20.369146 483.899414,20.308851 
	C489.501373,19.957224 495.136658,20.136564 501.400879,20.136564 
	C501.400879,30.263578 501.400879,39.881954 501.400635,50.000336 
z"/>
<path fill="#846388" opacity="1.000000" stroke="none" 
	d="
M419.998535,126.017181 
	C426.157043,126.019997 431.816040,126.019997 437.475037,126.019997 
	C437.461548,126.558891 437.448090,127.097794 437.434631,127.636688 
	C422.580505,127.636688 407.726379,127.636688 392.872253,127.636688 
	C392.851929,127.095909 392.831573,126.555138 392.811249,126.014359 
	C401.707153,126.014359 410.603088,126.014359 419.998535,126.017181 
z"/>
<path fill="#7C5C82" opacity="1.000000" stroke="none" 
	d="
M499.979767,126.589058 
	C509.226013,125.558044 518.484192,123.001236 527.701721,125.639908 
	C527.713318,126.386734 527.724915,127.133560 527.736450,127.880386 
	C518.771851,127.880386 509.807220,127.880386 500.367188,127.533783 
	C499.921082,126.987808 499.950409,126.788437 499.979767,126.589058 
z"/>
<path fill="#7C5C82" opacity="1.000000" stroke="none" 
	d="
M465.068146,127.873154 
	C459.276398,127.873154 453.484650,127.873154 447.692871,127.873154 
	C447.679474,127.342857 447.666046,126.812569 447.652618,126.282272 
	C453.203705,126.282272 458.754761,126.282272 464.681183,126.777679 
	C465.060425,127.473106 465.064270,127.673134 465.068146,127.873154 
z"/>
<path fill="#A78FAA" opacity="1.000000" stroke="none" 
	d="
M465.531677,127.897713 
	C465.064270,127.673134 465.060425,127.473106 465.044495,126.973068 
	C476.369965,126.636604 487.707428,126.600151 499.512329,126.576385 
	C499.950409,126.788437 499.921082,126.987808 499.893982,127.489456 
	C488.595886,127.835251 477.295563,127.878761 465.531677,127.897713 
z"/>
<path fill="#E9DED0" opacity="1.000000" stroke="none" 
	d="
M275.663513,88.462677 
	C274.664185,85.845665 276.155609,84.284172 278.835907,84.189789 
	C282.034149,84.077164 285.250580,84.481514 288.772766,84.940598 
	C286.108337,85.344421 283.087982,85.215080 280.169739,85.699997 
	C278.666718,85.949760 277.345428,87.293053 275.663513,88.462677 
z"/>
<path fill="#E9DED0" opacity="1.000000" stroke="none" 
	d="
M303.882935,87.437607 
	C306.222443,92.095924 308.601532,97.130836 310.996429,102.537659 
	C308.648987,97.877777 306.285767,92.845985 303.882935,87.437607 
z"/>
<path fill="#E9DED0" opacity="1.000000" stroke="none" 
	d="
M300.662811,24.654781 
	C294.160248,24.975746 287.436005,24.935726 280.230774,24.807903 
	C286.646881,24.577997 293.544006,24.435898 300.662811,24.654781 
z"/>
<path fill="#E9DED0" opacity="1.000000" stroke="none" 
	d="
M253.309937,92.450226 
	C252.738571,95.568970 251.925751,98.962852 251.051376,102.744423 
	C250.614929,102.386620 249.764084,101.488762 249.945694,100.921463 
	C250.835831,98.141151 252.000717,95.448807 253.309937,92.450226 
z"/>
<path fill="#E9DED0" opacity="1.000000" stroke="none" 
	d="
M269.244934,50.429749 
	C268.321625,53.685436 267.168671,57.224655 265.710693,60.897514 
	C266.608887,57.591866 267.812073,54.152576 269.244934,50.429749 
z"/>
<path fill="#E9DED0" opacity="1.000000" stroke="none" 
	d="
M279.412170,24.847919 
	C278.730927,27.351337 277.734711,29.998417 276.455505,32.836548 
	C277.147369,30.348925 278.122314,27.670254 279.412170,24.847919 
z"/>
<path fill="#E9DED0" opacity="1.000000" stroke="none" 
	d="
M272.587769,41.895287 
	C272.123474,43.987442 271.381073,46.306789 270.335022,48.814651 
	C270.790771,46.709602 271.550232,44.416042 272.587769,41.895287 
z"/>
<path fill="#E9DED0" opacity="1.000000" stroke="none" 
	d="
M313.123291,56.627914 
	C312.422760,55.723740 311.772034,54.452850 311.179932,52.767899 
	C311.883423,53.656288 312.528259,54.958744 313.123291,56.627914 
z"/>
<path fill="#E9DED0" opacity="1.000000" stroke="none" 
	d="
M307.040680,40.636139 
	C306.403839,39.739262 305.750916,38.480865 305.154053,36.812263 
	C305.814941,37.692913 306.419769,38.983768 307.040680,40.636139 
z"/>
<path fill="#E9DED0" opacity="1.000000" stroke="none" 
	d="
M303.218323,30.632793 
	C302.529419,29.675941 301.883850,28.343790 301.297577,26.620773 
	C301.991760,27.572435 302.626678,28.914963 303.218323,30.632793 
z"/>
<path fill="#E9DED0" opacity="1.000000" stroke="none" 
	d="
M258.935730,77.299065 
	C258.880646,78.245667 258.579529,79.442902 258.006470,80.777832 
	C258.052917,79.793594 258.371338,78.671646 258.935730,77.299065 
z"/>
<path fill="#E9DED0" opacity="1.000000" stroke="none" 
	d="
M308.661621,44.690372 
	C308.161469,44.060463 307.642181,43.093708 307.173218,41.761486 
	C307.696564,42.381855 308.169525,43.367691 308.661621,44.690372 
z"/>
<path fill="#E9DED0" opacity="1.000000" stroke="none" 
	d="
M329.335999,103.158951 
	C329.042633,102.154884 329.079346,101.218651 329.179871,99.816727 
	C329.384491,100.642952 329.525269,101.934868 329.335999,103.158951 
z"/>
<path fill="#E9DED0" opacity="1.000000" stroke="none" 
	d="
M314.623047,60.699974 
	C314.124817,60.083206 313.607758,59.137074 313.141052,57.832260 
	C313.662354,58.439251 314.133270,59.404926 314.623047,60.699974 
z"/>
<path fill="#E9DED0" opacity="1.000000" stroke="none" 
	d="
M256.575012,83.730240 
	C256.591797,84.584190 256.357971,85.648994 255.827820,86.875748 
	C255.795792,86.005501 256.060120,84.973305 256.575012,83.730240 
z"/>
<path fill="#E9DED0" opacity="1.000000" stroke="none" 
	d="
M320.922119,76.668884 
	C320.306763,76.047356 319.720490,75.080284 319.189941,73.731384 
	C319.814148,74.340828 320.382660,75.332085 320.922119,76.668884 
z"/>
<path fill="#E9DED0" opacity="1.000000" stroke="none" 
	d="
M261.351562,71.474312 
	C261.310516,72.347084 261.032135,73.473984 260.456512,74.814041 
	C260.477600,73.927612 260.795929,72.828026 261.351562,71.474312 
z"/>
<path fill="#E9DED0" opacity="1.000000" stroke="none" 
	d="
M274.264038,37.412285 
	C274.334167,38.020981 274.188354,38.860432 273.744812,39.865479 
	C273.647430,39.235065 273.847748,38.439053 274.264038,37.412285 
z"/>
<path fill="#E9DED0" opacity="1.000000" stroke="none" 
	d="
M263.971619,64.228546 
	C264.103027,64.670692 264.015808,65.291435 263.700653,65.972504 
	C263.566132,65.490936 263.659576,64.949043 263.971619,64.228546 
z"/>
<path fill="#E9DED0" opacity="1.000000" stroke="none" 
	d="
M319.207489,72.682419 
	C318.864746,72.452370 318.569611,71.897911 318.326538,71.019821 
	C318.670746,71.250130 318.962921,71.804077 319.207489,72.682419 
z"/>
<path fill="#E9DED0" opacity="1.000000" stroke="none" 
	d="
M304.402405,33.490356 
	C304.014496,33.264042 303.615753,32.675037 303.231384,31.710094 
	C303.627716,31.931993 304.009644,32.529831 304.402405,33.490356 
z"/>
<path fill="#E9DED0" opacity="1.000000" stroke="none" 
	d="
M271.417938,99.149475 
	C271.314301,98.718475 271.484039,98.075706 271.907532,97.204712 
	C272.004669,97.630234 271.847992,98.283974 271.417938,99.149475 
z"/>
<path fill="#E9DED0" opacity="1.000000" stroke="none" 
	d="
M254.600830,88.865456 
	C254.730499,89.282883 254.599548,89.908409 254.239761,90.767609 
	C254.120667,90.358704 254.230423,89.716133 254.600830,88.865456 
z"/>
<path fill="#E9DED0" opacity="1.000000" stroke="none" 
	d="
M322.282043,80.543747 
	C321.906067,80.312576 321.539886,79.726357 321.188354,78.777344 
	C321.565979,79.005936 321.928955,79.597321 322.282043,80.543747 
z"/>
<path fill="#E9DED0" opacity="1.000000" stroke="none" 
	d="
M274.111694,91.809586 
	C273.659790,91.716194 273.665344,91.443703 274.121216,91.144890 
	C274.281281,91.275223 274.280487,91.445862 274.111694,91.809586 
z"/>
<path fill="#E9DED0" opacity="1.000000" stroke="none" 
	d="
M310.117493,48.729958 
	C309.721802,48.891598 309.559540,48.648476 309.707886,48.145004 
	C309.919373,48.161327 310.030151,48.308178 310.117493,48.729958 
z"/>
<path fill="#E9DED0" opacity="1.000000" stroke="none" 
	d="
M262.670776,67.857819 
	C262.918396,68.053749 262.840759,68.353813 262.495789,68.797165 
	C262.371490,68.641197 262.410492,68.315033 262.670776,67.857819 
z"/>
<path fill="#E9DED0" opacity="1.000000" stroke="none" 
	d="
M316.122894,64.659683 
	C315.872131,64.608688 315.657837,64.205345 315.470703,63.450943 
	C315.718323,63.502369 315.938843,63.904858 316.122894,64.659683 
z"/>
<path fill="#E9DED0" opacity="1.000000" stroke="none" 
	d="
M269.308472,103.086998 
	C269.241364,102.807396 269.487091,102.548836 269.983032,102.189156 
	C270.029266,102.428040 269.825317,102.768036 269.308472,103.086998 
z"/>
<path fill="#E9DED0" opacity="1.000000" stroke="none" 
	d="
M318.389648,70.456306 
	C318.368164,70.663910 317.944092,70.581703 317.944092,70.581703 
	C317.944092,70.581703 317.859406,70.190964 317.972717,70.088943 
	C318.085999,69.986923 318.411133,70.248703 318.389648,70.456306 
z"/>
<path fill="#3E0942" opacity="1.000000" stroke="none" 
	d="
M116.939743,39.536926 
	C129.464005,39.884911 135.555069,47.776169 130.847443,57.623302 
	C129.538986,60.360218 126.036743,62.081432 123.443039,64.145569 
	C122.857353,64.611664 121.872368,64.645088 121.055153,64.740906 
	C106.059120,66.499207 106.009491,66.450920 106.019417,51.463646 
	C106.021912,47.692062 106.019798,43.920479 106.019798,39.538078 
	C109.909317,39.538078 113.182320,39.538078 116.939743,39.536926 
z"/>
<path fill="#451249" opacity="1.000000" stroke="none" 
	d="
M299.942535,69.021866 
	C298.604767,69.624062 297.284210,70.694038 295.926086,70.744095 
	C291.119873,70.921219 286.300781,70.749619 280.987244,70.486542 
	C280.487946,70.262871 280.091949,69.996857 280.091949,69.996857 
	C283.156372,61.727768 286.220795,53.458679 289.285248,45.189590 
	C289.710815,45.220322 290.136383,45.251053 290.561951,45.281784 
	C292.823944,51.042892 295.085968,56.804005 297.617493,63.137444 
	C298.106476,64.082886 298.325958,64.456009 298.545471,64.829117 
	C298.670990,65.385239 298.796539,65.941360 299.059814,67.019341 
	C299.445892,68.034752 299.694214,68.528313 299.942535,69.021866 
z"/>
<path fill="#E9DED0" opacity="1.000000" stroke="none" 
	d="
M302.838257,44.923836 
	C302.844208,43.941441 303.069031,43.183895 303.293823,42.426346 
	C303.763214,42.741917 304.232574,43.057484 304.701965,43.373051 
	C304.153687,43.964928 303.605408,44.556805 302.838257,44.923836 
z"/>
<path fill="#E6DACE" opacity="1.000000" stroke="none" 
	d="
M300.132080,68.858772 
	C299.694214,68.528313 299.445892,68.034752 299.244019,67.254028 
	C299.634155,67.543129 299.977875,68.119400 300.132080,68.858772 
z"/>
<path fill="#E6DACE" opacity="1.000000" stroke="none" 
	d="
M279.988617,70.136688 
	C280.091949,69.996857 280.487946,70.262871 280.558594,70.490631 
	C280.381287,70.571091 280.133270,70.423805 279.988617,70.136688 
z"/>
<path fill="#E6DACE" opacity="1.000000" stroke="none" 
	d="
M298.554688,64.493073 
	C298.325958,64.456009 298.106476,64.082886 297.872375,63.381378 
	C298.093140,63.420998 298.328522,63.789013 298.554688,64.493073 
z"/>
<path fill="#410C44" opacity="1.000000" stroke="none" 
	d="
M449.809143,87.130157 
	C445.493713,91.620644 440.316071,92.564758 434.873444,91.944504 
	C430.949677,91.497353 427.902161,89.691132 428.193665,84.889046 
	C428.472260,80.299339 431.458893,79.087532 435.323456,79.022919 
	C440.100494,78.943047 444.879852,79.003815 450.011963,79.003815 
	C450.011963,81.894363 450.011963,84.327049 449.809143,87.130157 
z"/>
</svg>